PathFileType	3	(X/Y/Z)	C:\Users\koon_\Desktop\
DataRate	CameraRate	NumFrames	NumMarkers	Units	OrigDataRate	OrigDataStartFrame	OrigNumFrames
100.0	100.0	4	27	mm	100.0	1504	3007	
Frame#	Time	get:LFHD			get:RFHD			get:LBHD			get:RBHD			get:C7			get:T10			get:CLAV			get:STRN			get:RBAK			get:LSHO			get:LUPA			get:LELB			get:LFRA			get:LWRA			get:LWRB			get:LFIN			get:RSHO			get:RUPA			get:RELB			get:RFRA			get:RWRA			get:RWRB			get:RFIN			get:LASI			get:RASI			get:LPSI			get:RPSI			
		X1	Y1	Z1	X2	Y2	Z2	X3	Y3	Z3	X4	Y4	Z4	X5	Y5	Z5	X6	Y6	Z6	X7	Y7	Z7	X8	Y8	Z8	X9	Y9	Z9	X10	Y10	Z10	X11	Y11	Z11	X12	Y12	Z12	X13	Y13	Z13	X14	Y14	Z14	X15	Y15	Z15	X16	Y16	Z16	X17	Y17	Z17	X18	Y18	Z18	X19	Y19	Z19	X20	Y20	Z20	X21	Y21	Z21	X22	Y22	Z22	X23	Y23	Z23	X24	Y24	Z24	X25	Y25	Z25	X26	Y26	Z26	X27	Y27	Z27	
1504	15.03	-407.40732	1320.8462	-3.1050568	-392.34464	1166.7739	-35.108486	-390.26254	1340.5355	-126.4791	-387.72214	1220.2953	-170.18158	-185.83205	1296.7549	-147.51402	11.562239	1148.7831	-225.19693	-172.8479	1155.7373	0.74484795	-36.614967	1027.4739	4.8297124	-179.78491	1208.1133	-221.1835	-116.60928	1337.6144	17.952658	-5.902791	1246.4207	68.176117	115.6321	1106.3461	71.644043	84.44313	982.45197	61.095253	100.56274	890.18188	44.546944	155.09978	898.81097	82.870132	135.1611	813.14923	90.123993	-288.78055	1151.4114	-150.51212	-247.96738	928.57288	-184.86044	-191.21443	844.63251	-241.5527	-209.87904	767.46832	-171.47488	-173.67979	621.02228	-141.81142	-167.24898	623.06885	-217.41725	-198.31445	552.5871	-173.82942	165.81412	939.42499	-51.91708	-101.12155	902.91901	-110.84801	123.92865	987.39929	-257.80969	23.041124	962.30969	-287.03683
1505	15.04	-406.32364	1321.8771	-2.099957	-392.09219	1167.9601	-34.487919	-389.69363	1342.3127	-125.48524	-387.80988	1221.8328	-169.22601	-185.30992	1297.2808	-147.26801	11.768029	1148.8821	-225.35863	-172.57317	1156.0579	0.68799841	-36.573971	1027.5365	4.5851531	-179.48926	1208.7255	-221.14084	-115.72495	1337.8391	18.201946	-5.3056455	1246.2842	68.154427	115.88351	1105.8667	71.370911	84.431404	982.01129	60.773472	100.91732	888.31128	40.328854	154.96869	898.29651	82.544701	135.0383	812.61536	89.600441	-288.5321	1152.1628	-150.4501	-248.35593	929.33484	-185.03522	-191.7711	845.22137	-241.54076	-210.55424	768.06329	-171.47656	-174.50258	621.66565	-141.76508	-168.1738	623.55176	-217.28575	-199.27937	553.15717	-173.79327	165.68098	939.328	-52.038521	-101.24742	903.11517	-110.98369	123.90525	987.37354	-257.96899	22.956255	962.34546	-287.20636
1506	15.05	-405.08942	1323.1509	-1.0536908	-391.80972	1169.3425	-33.726021	-388.82065	1343.911	-124.48495	-387.79364	1223.5182	-168.52243	-184.72314	1297.8271	-147.07294	11.9857	1149.0325	-225.49327	-172.14851	1156.4524	0.70464253	-36.453491	1027.6383	4.43365	-179.12213	1209.4072	-221.24078	-114.803	1338.1301	18.2852	-4.6124225	1246.0758	68.078201	116.20683	1105.4832	71.020569	84.534805	981.65942	60.471046	100.79853	887.92859	40.055527	154.95091	897.82599	82.116646	134.85228	812.23999	89.177185	-288.22055	1152.9955	-150.36531	-248.72823	930.11804	-184.98383	-192.32657	845.85474	-241.53612	-211.16898	768.75195	-171.37009	-175.29619	622.2713	-141.64328	-169.09093	624.10956	-217.25787	-200.17757	553.74805	-173.66687	165.57906	939.27557	-52.128105	-101.30775	903.31573	-111.09715	123.67094	987.10779	-257.85794	22.867317	962.36584	-287.38345
1507	15.06	-403.73151	1324.6359	-0.017203428	-391.36111	1170.8928	-32.851654	-387.9147	1345.5613	-123.51846	-387.75729	1225.2166	-167.58615	-183.97572	1298.5023	-146.88838	12.195772	1149.1914	-225.66292	-171.65906	1156.9296	0.70016527	-36.315468	1027.7662	4.3016715	-178.68826	1210.0007	-221.0612	-113.91969	1338.2737	17.259743	-3.7453623	1246.0071	67.915161	116.73024	1105.1536	70.489616	84.718193	981.39276	60.191078	100.66411	887.68909	39.998135	155.02585	897.44867	81.613815	134.70392	811.86401	88.928062	-287.8389	1153.8622	-150.21178	-249.07307	930.96375	-184.94243	-192.9332	846.48328	-241.50566	-211.73112	769.50446	-171.18416	-176.26579	622.89911	-141.57175	-170.09424	624.69788	-217.18596	-201.10867	554.3269	-173.57074	165.48788	939.21875	-52.276917	-101.38754	903.50104	-111.46341	123.58881	987.04468	-258.03586	22.810209	962.43274	-287.59457
